<svg width="99" height="14" viewBox="0 0 99 14" fill="none" xmlns="http://www.w3.org/2000/svg">
<path d="M18.036 0.436L14.526 13H11.556L9.198 4.054L6.732 13L3.78 13.018L0.396 0.436H3.096L5.31 10.192L7.866 0.436H10.674L13.086 10.138L15.318 0.436H18.036ZM26.5135 13.126C25.3375 13.126 24.2575 12.85 23.2735 12.298C22.2895 11.746 21.5095 10.984 20.9335 10.012C20.3575 9.028 20.0695 7.918 20.0695 6.682C20.0695 5.458 20.3575 4.36 20.9335 3.388C21.5095 2.404 22.2895 1.636 23.2735 1.084C24.2575 0.532 25.3375 0.256 26.5135 0.256C27.7015 0.256 28.7815 0.532 29.7535 1.084C30.7375 1.636 31.5115 2.404 32.0755 3.388C32.6515 4.36 32.9395 5.458 32.9395 6.682C32.9395 7.918 32.6515 9.028 32.0755 10.012C31.5115 10.984 30.7375 11.746 29.7535 12.298C28.7695 12.85 27.6895 13.126 26.5135 13.126ZM26.5135 10.876C27.2695 10.876 27.9355 10.708 28.5115 10.372C29.0875 10.024 29.5375 9.532 29.8615 8.896C30.1855 8.26 30.3475 7.522 30.3475 6.682C30.3475 5.842 30.1855 5.11 29.8615 4.486C29.5375 3.85 29.0875 3.364 28.5115 3.028C27.9355 2.692 27.2695 2.524 26.5135 2.524C25.7575 2.524 25.0855 2.692 24.4975 3.028C23.9215 3.364 23.4715 3.85 23.1475 4.486C22.8235 5.11 22.6615 5.842 22.6615 6.682C22.6615 7.522 22.8235 8.26 23.1475 8.896C23.4715 9.532 23.9215 10.024 24.4975 10.372C25.0855 10.708 25.7575 10.876 26.5135 10.876ZM42.2943 13L39.5223 8.104H38.3343V13H35.8143V0.436H40.5303C41.5023 0.436 42.3303 0.61 43.0143 0.957999C43.6983 1.294 44.2083 1.756 44.5443 2.344C44.8923 2.92 45.0663 3.568 45.0663 4.288C45.0663 5.116 44.8263 5.866 44.3463 6.538C43.8663 7.198 43.1523 7.654 42.2043 7.906L45.2103 13H42.2943ZM38.3343 6.214H40.4403C41.1243 6.214 41.6343 6.052 41.9703 5.728C42.3063 5.392 42.4743 4.93 42.4743 4.342C42.4743 3.766 42.3063 3.322 41.9703 3.01C41.6343 2.686 41.1243 2.524 40.4403 2.524H38.3343V6.214ZM55.4375 13L50.8655 7.402V13H48.3455V0.436H50.8655V6.07L55.4375 0.436H58.4795L53.2955 6.664L58.6235 13H55.4375ZM67.1131 13.126C65.9371 13.126 64.8571 12.85 63.8731 12.298C62.8891 11.746 62.1091 10.984 61.5331 10.012C60.9571 9.028 60.6691 7.918 60.6691 6.682C60.6691 5.458 60.9571 4.36 61.5331 3.388C62.1091 2.404 62.8891 1.636 63.8731 1.084C64.8571 0.532 65.9371 0.256 67.1131 0.256C68.3011 0.256 69.3811 0.532 70.3531 1.084C71.3371 1.636 72.1111 2.404 72.6751 3.388C73.2511 4.36 73.5391 5.458 73.5391 6.682C73.5391 7.918 73.2511 9.028 72.6751 10.012C72.1111 10.984 71.3371 11.746 70.3531 12.298C69.3691 12.85 68.2891 13.126 67.1131 13.126ZM67.1131 10.876C67.8691 10.876 68.5351 10.708 69.1111 10.372C69.6871 10.024 70.1371 9.532 70.4611 8.896C70.7851 8.26 70.9471 7.522 70.9471 6.682C70.9471 5.842 70.7851 5.11 70.4611 4.486C70.1371 3.85 69.6871 3.364 69.1111 3.028C68.5351 2.692 67.8691 2.524 67.1131 2.524C66.3571 2.524 65.6851 2.692 65.0971 3.028C64.5211 3.364 64.0711 3.85 63.7471 4.486C63.4231 5.11 63.2611 5.842 63.2611 6.682C63.2611 7.522 63.4231 8.26 63.7471 8.896C64.0711 9.532 64.5211 10.024 65.0971 10.372C65.6851 10.708 66.3571 10.876 67.1131 10.876ZM78.8979 0.436V8.212C78.8979 9.064 79.1199 9.718 79.5639 10.174C80.0079 10.618 80.6319 10.84 81.4359 10.84C82.2519 10.84 82.8819 10.618 83.3259 10.174C83.7699 9.718 83.9919 9.064 83.9919 8.212V0.436H86.5299V8.194C86.5299 9.262 86.2959 10.168 85.8279 10.912C85.3719 11.644 84.7539 12.196 83.9739 12.568C83.2059 12.94 82.3479 13.126 81.3999 13.126C80.4639 13.126 79.6119 12.94 78.8439 12.568C78.0879 12.196 77.4879 11.644 77.0439 10.912C76.5999 10.168 76.3779 9.262 76.3779 8.194V0.436H78.8979ZM98.5147 0.436V2.47H95.1667V13H92.6467V2.47H89.2987V0.436H98.5147Z" fill="white"/>
</svg>
